<mxfile host="app.diagrams.net" agent="Mozilla/5.0 (Windows NT 10.0; Win64; x64) AppleWebKit/537.36 (KHTML, like Gecko) Chrome/130.0.0.0 Safari/537.36" version="24.8.6">
  <diagram name="Page-1" id="6HX-MXcLMIl6TyerD5Ir">
    <mxGraphModel dx="1884" dy="493" grid="1" gridSize="10" guides="1" tooltips="1" connect="1" arrows="1" fold="1" page="1" pageScale="1" pageWidth="850" pageHeight="1100" math="0" shadow="0">
      <root>
        <mxCell id="0" />
        <mxCell id="1" parent="0" />
        <mxCell id="ytlrNSvULWhmnT2JwJBG-1" value="" style="edgeStyle=entityRelationEdgeStyle;fontSize=12;html=1;endArrow=ERmandOne;startArrow=ERoneToMany;rounded=0;startFill=0;endFill=0;exitX=1;exitY=0.5;exitDx=0;exitDy=0;entryX=0;entryY=0.5;entryDx=0;entryDy=0;" edge="1" parent="1" source="ytlrNSvULWhmnT2JwJBG-3" target="ytlrNSvULWhmnT2JwJBG-31">
          <mxGeometry width="100" height="100" relative="1" as="geometry">
            <mxPoint x="-20" y="320" as="sourcePoint" />
            <mxPoint x="80" y="220" as="targetPoint" />
          </mxGeometry>
        </mxCell>
        <mxCell id="ytlrNSvULWhmnT2JwJBG-2" value="" style="edgeStyle=entityRelationEdgeStyle;fontSize=12;html=1;endArrow=ERmandOne;startArrow=ERoneToMany;rounded=0;startFill=0;endFill=0;exitX=1;exitY=0.5;exitDx=0;exitDy=0;entryX=0;entryY=0.5;entryDx=0;entryDy=0;" edge="1" parent="1" source="ytlrNSvULWhmnT2JwJBG-20" target="ytlrNSvULWhmnT2JwJBG-3">
          <mxGeometry width="100" height="100" relative="1" as="geometry">
            <mxPoint x="-130" y="290" as="sourcePoint" />
            <mxPoint x="100" y="290" as="targetPoint" />
          </mxGeometry>
        </mxCell>
        <mxCell id="ytlrNSvULWhmnT2JwJBG-3" value="can have many" style="shape=rhombus;perimeter=rhombusPerimeter;whiteSpace=wrap;html=1;align=center;container=0;" vertex="1" parent="1">
          <mxGeometry x="-80" y="260" width="120" height="60" as="geometry" />
        </mxCell>
        <mxCell id="ytlrNSvULWhmnT2JwJBG-4" value="volunteer_name" style="ellipse;whiteSpace=wrap;html=1;align=center;container=0;" vertex="1" parent="1">
          <mxGeometry x="201" y="461" width="100" height="40" as="geometry" />
        </mxCell>
        <mxCell id="ytlrNSvULWhmnT2JwJBG-5" value="" style="endArrow=none;html=1;rounded=0;exitX=0.5;exitY=1;exitDx=0;exitDy=0;" edge="1" parent="1" source="ytlrNSvULWhmnT2JwJBG-4" target="ytlrNSvULWhmnT2JwJBG-59">
          <mxGeometry relative="1" as="geometry">
            <mxPoint x="170" y="440" as="sourcePoint" />
            <mxPoint x="330" y="440" as="targetPoint" />
          </mxGeometry>
        </mxCell>
        <mxCell id="ytlrNSvULWhmnT2JwJBG-6" value="TreeID" style="ellipse;whiteSpace=wrap;html=1;align=center;container=0;" vertex="1" parent="1">
          <mxGeometry x="261" y="501" width="100" height="40" as="geometry" />
        </mxCell>
        <mxCell id="ytlrNSvULWhmnT2JwJBG-7" value="" style="endArrow=none;html=1;rounded=0;entryX=1;entryY=0.25;entryDx=0;entryDy=0;exitX=0.291;exitY=0.957;exitDx=0;exitDy=0;exitPerimeter=0;" edge="1" parent="1" source="ytlrNSvULWhmnT2JwJBG-6" target="ytlrNSvULWhmnT2JwJBG-59">
          <mxGeometry relative="1" as="geometry">
            <mxPoint x="400" y="460" as="sourcePoint" />
            <mxPoint x="370" y="440" as="targetPoint" />
          </mxGeometry>
        </mxCell>
        <mxCell id="ytlrNSvULWhmnT2JwJBG-8" value="TreeNum" style="ellipse;whiteSpace=wrap;html=1;align=center;container=0;" vertex="1" parent="1">
          <mxGeometry x="306" y="545" width="100" height="40" as="geometry" />
        </mxCell>
        <mxCell id="ytlrNSvULWhmnT2JwJBG-9" value="" style="endArrow=none;html=1;rounded=0;exitX=0;exitY=0.5;exitDx=0;exitDy=0;entryX=1;entryY=0.75;entryDx=0;entryDy=0;" edge="1" parent="1" source="ytlrNSvULWhmnT2JwJBG-8" target="ytlrNSvULWhmnT2JwJBG-59">
          <mxGeometry relative="1" as="geometry">
            <mxPoint x="240" y="460" as="sourcePoint" />
            <mxPoint x="228" y="575" as="targetPoint" />
          </mxGeometry>
        </mxCell>
        <mxCell id="ytlrNSvULWhmnT2JwJBG-10" value="" style="endArrow=none;html=1;rounded=0;exitX=0.328;exitY=0.087;exitDx=0;exitDy=0;entryX=0.5;entryY=1;entryDx=0;entryDy=0;exitPerimeter=0;" edge="1" parent="1" source="ytlrNSvULWhmnT2JwJBG-11" target="ytlrNSvULWhmnT2JwJBG-59">
          <mxGeometry relative="1" as="geometry">
            <mxPoint x="230" y="435" as="sourcePoint" />
            <mxPoint x="390" y="435" as="targetPoint" />
          </mxGeometry>
        </mxCell>
        <mxCell id="ytlrNSvULWhmnT2JwJBG-11" value="volunteer_id" style="ellipse;whiteSpace=wrap;html=1;align=center;fontStyle=4;container=0;" vertex="1" parent="1">
          <mxGeometry x="249" y="585" width="100" height="40" as="geometry" />
        </mxCell>
        <mxCell id="ytlrNSvULWhmnT2JwJBG-12" value="" style="fontSize=12;html=1;endArrow=ERmandOne;startArrow=ERoneToMany;rounded=0;startFill=0;endFill=0;entryX=0.587;entryY=1.059;entryDx=0;entryDy=0;entryPerimeter=0;" edge="1" parent="1" target="ytlrNSvULWhmnT2JwJBG-31">
          <mxGeometry width="100" height="100" relative="1" as="geometry">
            <mxPoint x="159" y="390" as="sourcePoint" />
            <mxPoint x="157" y="441" as="targetPoint" />
          </mxGeometry>
        </mxCell>
        <mxCell id="ytlrNSvULWhmnT2JwJBG-13" value="" style="fontSize=12;html=1;endArrow=ERmandOne;startArrow=ERoneToMany;rounded=0;startFill=0;endFill=0;entryX=0.5;entryY=1;entryDx=0;entryDy=0;" edge="1" parent="1" target="ytlrNSvULWhmnT2JwJBG-14">
          <mxGeometry width="100" height="100" relative="1" as="geometry">
            <mxPoint x="160" y="520" as="sourcePoint" />
            <mxPoint x="159" y="312" as="targetPoint" />
          </mxGeometry>
        </mxCell>
        <mxCell id="ytlrNSvULWhmnT2JwJBG-14" value="can have many" style="shape=rhombus;perimeter=rhombusPerimeter;whiteSpace=wrap;html=1;align=center;container=0;" vertex="1" parent="1">
          <mxGeometry x="100" y="391" width="120" height="60" as="geometry" />
        </mxCell>
        <mxCell id="ytlrNSvULWhmnT2JwJBG-15" value="" style="fontSize=12;html=1;endArrow=ERoneToMany;startArrow=ERmandOne;rounded=0;exitX=1;exitY=0.5;exitDx=0;exitDy=0;entryX=0;entryY=0.5;entryDx=0;entryDy=0;endFill=0;" edge="1" parent="1" source="ytlrNSvULWhmnT2JwJBG-60" target="ytlrNSvULWhmnT2JwJBG-53">
          <mxGeometry width="100" height="100" relative="1" as="geometry">
            <mxPoint x="-520" y="545" as="sourcePoint" />
            <mxPoint x="-270" y="545" as="targetPoint" />
          </mxGeometry>
        </mxCell>
        <mxCell id="ytlrNSvULWhmnT2JwJBG-16" value="" style="fontSize=12;html=1;endArrow=ERmandOne;startArrow=ERoneToMany;rounded=0;startFill=0;endFill=0;entryX=0;entryY=0.5;entryDx=0;entryDy=0;" edge="1" parent="1" source="ytlrNSvULWhmnT2JwJBG-18" target="ytlrNSvULWhmnT2JwJBG-20">
          <mxGeometry width="100" height="100" relative="1" as="geometry">
            <mxPoint x="-600" y="290" as="sourcePoint" />
            <mxPoint x="-420" y="191.5" as="targetPoint" />
          </mxGeometry>
        </mxCell>
        <mxCell id="ytlrNSvULWhmnT2JwJBG-17" value="" style="fontSize=12;html=1;endArrow=ERmandOne;startArrow=ERoneToMany;rounded=0;startFill=0;endFill=0;entryX=0;entryY=0.5;entryDx=0;entryDy=0;" edge="1" parent="1" target="ytlrNSvULWhmnT2JwJBG-18">
          <mxGeometry width="100" height="100" relative="1" as="geometry">
            <mxPoint x="-600" y="290" as="sourcePoint" />
            <mxPoint x="-250" y="290" as="targetPoint" />
          </mxGeometry>
        </mxCell>
        <mxCell id="ytlrNSvULWhmnT2JwJBG-18" value="has one" style="shape=rhombus;perimeter=rhombusPerimeter;whiteSpace=wrap;html=1;align=center;container=0;" vertex="1" parent="1">
          <mxGeometry x="-510" y="260" width="120" height="60" as="geometry" />
        </mxCell>
        <mxCell id="ytlrNSvULWhmnT2JwJBG-19" value="relate to" style="shape=rhombus;double=1;perimeter=rhombusPerimeter;whiteSpace=wrap;html=1;align=center;container=0;" vertex="1" parent="1">
          <mxGeometry x="-470" y="512" width="120" height="60" as="geometry" />
        </mxCell>
        <mxCell id="ytlrNSvULWhmnT2JwJBG-20" value="Species&amp;nbsp;" style="whiteSpace=wrap;html=1;container=0;" vertex="1" parent="1">
          <mxGeometry x="-250" y="270" width="120" height="40" as="geometry" />
        </mxCell>
        <mxCell id="ytlrNSvULWhmnT2JwJBG-21" value="project_id" style="ellipse;whiteSpace=wrap;html=1;align=center;container=0;" vertex="1" parent="1">
          <mxGeometry x="-140" y="190" width="100" height="40" as="geometry" />
        </mxCell>
        <mxCell id="ytlrNSvULWhmnT2JwJBG-22" value="Species_name" style="ellipse;whiteSpace=wrap;html=1;align=center;container=0;" vertex="1" parent="1">
          <mxGeometry x="-340" y="130" width="100" height="40" as="geometry" />
        </mxCell>
        <mxCell id="ytlrNSvULWhmnT2JwJBG-23" value="NativeArea" style="ellipse;whiteSpace=wrap;html=1;align=center;container=0;" vertex="1" parent="1">
          <mxGeometry x="-240" y="110" width="100" height="40" as="geometry" />
        </mxCell>
        <mxCell id="ytlrNSvULWhmnT2JwJBG-24" value="Growth_rate" style="ellipse;whiteSpace=wrap;html=1;align=center;container=0;" vertex="1" parent="1">
          <mxGeometry x="-170" y="150" width="100" height="40" as="geometry" />
        </mxCell>
        <mxCell id="ytlrNSvULWhmnT2JwJBG-25" value="" style="endArrow=none;html=1;rounded=0;entryX=0;entryY=1;entryDx=0;entryDy=0;exitX=0.667;exitY=0;exitDx=0;exitDy=0;exitPerimeter=0;" edge="1" parent="1" source="ytlrNSvULWhmnT2JwJBG-20" target="ytlrNSvULWhmnT2JwJBG-24">
          <mxGeometry relative="1" as="geometry">
            <mxPoint x="-280" y="230" as="sourcePoint" />
            <mxPoint x="-120" y="230" as="targetPoint" />
          </mxGeometry>
        </mxCell>
        <mxCell id="ytlrNSvULWhmnT2JwJBG-26" value="" style="endArrow=none;html=1;rounded=0;entryX=0.5;entryY=1;entryDx=0;entryDy=0;exitX=0.5;exitY=0;exitDx=0;exitDy=0;" edge="1" parent="1" source="ytlrNSvULWhmnT2JwJBG-20" target="ytlrNSvULWhmnT2JwJBG-23">
          <mxGeometry relative="1" as="geometry">
            <mxPoint x="-280" y="230" as="sourcePoint" />
            <mxPoint x="-120" y="230" as="targetPoint" />
          </mxGeometry>
        </mxCell>
        <mxCell id="ytlrNSvULWhmnT2JwJBG-27" value="" style="endArrow=none;html=1;rounded=0;exitX=0.953;exitY=0.825;exitDx=0;exitDy=0;exitPerimeter=0;" edge="1" parent="1" source="ytlrNSvULWhmnT2JwJBG-22">
          <mxGeometry relative="1" as="geometry">
            <mxPoint x="-80" y="350" as="sourcePoint" />
            <mxPoint x="-202" y="268" as="targetPoint" />
          </mxGeometry>
        </mxCell>
        <mxCell id="ytlrNSvULWhmnT2JwJBG-28" value="" style="endArrow=none;html=1;rounded=0;exitX=1;exitY=1;exitDx=0;exitDy=0;entryX=0.25;entryY=0;entryDx=0;entryDy=0;" edge="1" parent="1" target="ytlrNSvULWhmnT2JwJBG-20">
          <mxGeometry relative="1" as="geometry">
            <mxPoint x="-264.64466094067257" y="219.14213562373095" as="sourcePoint" />
            <mxPoint x="90" y="360" as="targetPoint" />
          </mxGeometry>
        </mxCell>
        <mxCell id="ytlrNSvULWhmnT2JwJBG-29" value="" style="endArrow=none;html=1;rounded=0;exitX=0.867;exitY=0.075;exitDx=0;exitDy=0;exitPerimeter=0;entryX=0.5;entryY=1;entryDx=0;entryDy=0;" edge="1" parent="1" source="ytlrNSvULWhmnT2JwJBG-20" target="ytlrNSvULWhmnT2JwJBG-21">
          <mxGeometry relative="1" as="geometry">
            <mxPoint x="-210" y="240" as="sourcePoint" />
            <mxPoint x="-50" y="240" as="targetPoint" />
          </mxGeometry>
        </mxCell>
        <mxCell id="ytlrNSvULWhmnT2JwJBG-30" value="Species_id" style="ellipse;whiteSpace=wrap;html=1;align=center;fontStyle=4;container=0;" vertex="1" parent="1">
          <mxGeometry x="-350" y="190" width="100" height="40" as="geometry" />
        </mxCell>
        <mxCell id="ytlrNSvULWhmnT2JwJBG-31" value="Project" style="whiteSpace=wrap;html=1;align=center;container=0;" vertex="1" parent="1">
          <mxGeometry x="100" y="270" width="100" height="40" as="geometry" />
        </mxCell>
        <mxCell id="ytlrNSvULWhmnT2JwJBG-32" value="Location" style="ellipse;whiteSpace=wrap;html=1;align=center;container=0;" vertex="1" parent="1">
          <mxGeometry x="30" y="130" width="100" height="40" as="geometry" />
        </mxCell>
        <mxCell id="ytlrNSvULWhmnT2JwJBG-33" value="project_name" style="ellipse;whiteSpace=wrap;html=1;align=center;container=0;" vertex="1" parent="1">
          <mxGeometry x="261" y="90" width="100" height="40" as="geometry" />
        </mxCell>
        <mxCell id="ytlrNSvULWhmnT2JwJBG-34" value="species_id" style="ellipse;whiteSpace=wrap;html=1;align=center;container=0;" vertex="1" parent="1">
          <mxGeometry x="90" y="90" width="100" height="40" as="geometry" />
        </mxCell>
        <mxCell id="ytlrNSvULWhmnT2JwJBG-35" value="Status" style="ellipse;whiteSpace=wrap;html=1;align=center;container=0;" vertex="1" parent="1">
          <mxGeometry x="182" y="60" width="100" height="40" as="geometry" />
        </mxCell>
        <mxCell id="ytlrNSvULWhmnT2JwJBG-36" value="" style="endArrow=none;html=1;rounded=0;entryX=0.867;entryY=0.042;entryDx=0;entryDy=0;entryPerimeter=0;" edge="1" parent="1" target="ytlrNSvULWhmnT2JwJBG-31">
          <mxGeometry relative="1" as="geometry">
            <mxPoint x="210" y="100" as="sourcePoint" />
            <mxPoint x="280" y="340" as="targetPoint" />
          </mxGeometry>
        </mxCell>
        <mxCell id="ytlrNSvULWhmnT2JwJBG-37" value="" style="endArrow=none;html=1;rounded=0;exitX=0;exitY=1;exitDx=0;exitDy=0;entryX=1;entryY=0.25;entryDx=0;entryDy=0;" edge="1" parent="1" source="ytlrNSvULWhmnT2JwJBG-33" target="ytlrNSvULWhmnT2JwJBG-31">
          <mxGeometry relative="1" as="geometry">
            <mxPoint x="320" y="200" as="sourcePoint" />
            <mxPoint x="290" y="350" as="targetPoint" />
            <Array as="points">
              <mxPoint x="200" y="270" />
            </Array>
          </mxGeometry>
        </mxCell>
        <mxCell id="ytlrNSvULWhmnT2JwJBG-38" value="" style="endArrow=none;html=1;rounded=0;entryX=0.5;entryY=0;entryDx=0;entryDy=0;" edge="1" parent="1" source="ytlrNSvULWhmnT2JwJBG-34" target="ytlrNSvULWhmnT2JwJBG-31">
          <mxGeometry relative="1" as="geometry">
            <mxPoint x="70" y="290" as="sourcePoint" />
            <mxPoint x="230" y="290" as="targetPoint" />
          </mxGeometry>
        </mxCell>
        <mxCell id="ytlrNSvULWhmnT2JwJBG-39" value="" style="endArrow=none;html=1;rounded=0;exitX=0.5;exitY=1;exitDx=0;exitDy=0;" edge="1" parent="1" source="ytlrNSvULWhmnT2JwJBG-32">
          <mxGeometry relative="1" as="geometry">
            <mxPoint x="179" y="322" as="sourcePoint" />
            <mxPoint x="120" y="266" as="targetPoint" />
          </mxGeometry>
        </mxCell>
        <mxCell id="ytlrNSvULWhmnT2JwJBG-40" value="project_id" style="ellipse;whiteSpace=wrap;html=1;align=center;fontStyle=4;container=0;" vertex="1" parent="1">
          <mxGeometry x="301" y="130" width="100" height="40" as="geometry" />
        </mxCell>
        <mxCell id="ytlrNSvULWhmnT2JwJBG-41" value="" style="fontSize=12;html=1;endArrow=ERmandOne;startArrow=ERoneToMany;rounded=0;exitX=1;exitY=0.5;exitDx=0;exitDy=0;entryX=0;entryY=0.5;entryDx=0;entryDy=0;endFill=0;startFill=0;" edge="1" parent="1" source="ytlrNSvULWhmnT2JwJBG-43" target="ytlrNSvULWhmnT2JwJBG-59">
          <mxGeometry width="100" height="100" relative="1" as="geometry">
            <mxPoint x="26" y="542.5" as="sourcePoint" />
            <mxPoint x="101" y="541.5" as="targetPoint" />
          </mxGeometry>
        </mxCell>
        <mxCell id="ytlrNSvULWhmnT2JwJBG-42" value="" style="fontSize=12;html=1;endArrow=ERmandOne;startArrow=ERoneToMany;rounded=0;exitX=1;exitY=0.5;exitDx=0;exitDy=0;entryX=0;entryY=0.5;entryDx=0;entryDy=0;endFill=0;startFill=0;" edge="1" parent="1" source="ytlrNSvULWhmnT2JwJBG-53" target="ytlrNSvULWhmnT2JwJBG-43">
          <mxGeometry width="100" height="100" relative="1" as="geometry">
            <mxPoint x="-5.5" y="842.5" as="sourcePoint" />
            <mxPoint x="221.5" y="843.5" as="targetPoint" />
          </mxGeometry>
        </mxCell>
        <mxCell id="ytlrNSvULWhmnT2JwJBG-43" value="can have" style="shape=rhombus;double=1;perimeter=rhombusPerimeter;whiteSpace=wrap;html=1;align=center;container=0;" vertex="1" parent="1">
          <mxGeometry x="-93.5" y="511.5" width="120" height="60" as="geometry" />
        </mxCell>
        <mxCell id="ytlrNSvULWhmnT2JwJBG-44" value="project_id" style="ellipse;whiteSpace=wrap;html=1;align=center;container=0;" vertex="1" parent="1">
          <mxGeometry x="101" y="571.5" width="100" height="40" as="geometry" />
        </mxCell>
        <mxCell id="ytlrNSvULWhmnT2JwJBG-45" value="" style="endArrow=none;html=1;rounded=0;entryX=0.5;entryY=1;entryDx=0;entryDy=0;exitX=0.5;exitY=0;exitDx=0;exitDy=0;" edge="1" parent="1" source="ytlrNSvULWhmnT2JwJBG-44" target="ytlrNSvULWhmnT2JwJBG-59">
          <mxGeometry relative="1" as="geometry">
            <mxPoint x="102" y="607.5" as="sourcePoint" />
            <mxPoint x="122" y="567.5" as="targetPoint" />
          </mxGeometry>
        </mxCell>
        <mxCell id="ytlrNSvULWhmnT2JwJBG-46" value="" style="endArrow=none;html=1;rounded=0;exitX=0.904;exitY=0.989;exitDx=0;exitDy=0;entryX=0;entryY=0;entryDx=0;entryDy=0;exitPerimeter=0;" edge="1" parent="1" source="ytlrNSvULWhmnT2JwJBG-53" target="ytlrNSvULWhmnT2JwJBG-58">
          <mxGeometry relative="1" as="geometry">
            <mxPoint x="-160" y="572" as="sourcePoint" />
            <mxPoint x="-239" y="610" as="targetPoint" />
            <Array as="points" />
          </mxGeometry>
        </mxCell>
        <mxCell id="ytlrNSvULWhmnT2JwJBG-47" value="TreeID" style="ellipse;shape=doubleEllipse;margin=3;whiteSpace=wrap;html=1;align=center;container=0;" vertex="1" parent="1">
          <mxGeometry x="-190" y="611.5" width="100" height="40" as="geometry" />
        </mxCell>
        <mxCell id="ytlrNSvULWhmnT2JwJBG-48" value="" style="endArrow=none;html=1;rounded=0;exitX=0.75;exitY=1;exitDx=0;exitDy=0;entryX=0.5;entryY=0;entryDx=0;entryDy=0;" edge="1" parent="1" source="ytlrNSvULWhmnT2JwJBG-53" target="ytlrNSvULWhmnT2JwJBG-47">
          <mxGeometry relative="1" as="geometry">
            <mxPoint x="-175" y="500" as="sourcePoint" />
            <mxPoint x="-220" y="530" as="targetPoint" />
          </mxGeometry>
        </mxCell>
        <mxCell id="ytlrNSvULWhmnT2JwJBG-49" value="DateJoined" style="ellipse;shape=doubleEllipse;margin=3;whiteSpace=wrap;html=1;align=center;container=0;" vertex="1" parent="1">
          <mxGeometry x="-300" y="600" width="100" height="40" as="geometry" />
        </mxCell>
        <mxCell id="ytlrNSvULWhmnT2JwJBG-50" value="" style="endArrow=none;html=1;rounded=0;exitX=0.25;exitY=1;exitDx=0;exitDy=0;" edge="1" parent="1" source="ytlrNSvULWhmnT2JwJBG-53" target="ytlrNSvULWhmnT2JwJBG-49">
          <mxGeometry relative="1" as="geometry">
            <mxPoint x="-210" y="510" as="sourcePoint" />
            <mxPoint x="-140" y="560" as="targetPoint" />
          </mxGeometry>
        </mxCell>
        <mxCell id="ytlrNSvULWhmnT2JwJBG-51" value="project_id" style="ellipse;shape=doubleEllipse;margin=3;whiteSpace=wrap;html=1;align=center;container=0;" vertex="1" parent="1">
          <mxGeometry x="-145" y="461.5" width="100" height="40" as="geometry" />
        </mxCell>
        <mxCell id="ytlrNSvULWhmnT2JwJBG-52" value="" style="endArrow=none;html=1;rounded=0;entryX=0.899;entryY=-0.015;entryDx=0;entryDy=0;entryPerimeter=0;" edge="1" parent="1" source="ytlrNSvULWhmnT2JwJBG-51" target="ytlrNSvULWhmnT2JwJBG-53">
          <mxGeometry relative="1" as="geometry">
            <mxPoint x="-369" y="501.5" as="sourcePoint" />
            <mxPoint x="-299" y="551.5" as="targetPoint" />
          </mxGeometry>
        </mxCell>
        <mxCell id="ytlrNSvULWhmnT2JwJBG-53" value="volunteer assignment" style="shape=ext;margin=3;double=1;whiteSpace=wrap;html=1;align=center;container=0;" vertex="1" parent="1">
          <mxGeometry x="-245" y="521.5" width="100" height="40" as="geometry" />
        </mxCell>
        <mxCell id="ytlrNSvULWhmnT2JwJBG-54" value="Role" style="ellipse;shape=doubleEllipse;margin=3;whiteSpace=wrap;html=1;align=center;container=0;" vertex="1" parent="1">
          <mxGeometry x="-230" y="440" width="100" height="30" as="geometry" />
        </mxCell>
        <mxCell id="ytlrNSvULWhmnT2JwJBG-55" value="" style="endArrow=none;html=1;rounded=0;exitX=0.5;exitY=1;exitDx=0;exitDy=0;entryX=0.5;entryY=0;entryDx=0;entryDy=0;" edge="1" parent="1" source="ytlrNSvULWhmnT2JwJBG-54" target="ytlrNSvULWhmnT2JwJBG-53">
          <mxGeometry relative="1" as="geometry">
            <mxPoint x="-299" y="466.5" as="sourcePoint" />
            <mxPoint x="-229" y="516.5" as="targetPoint" />
          </mxGeometry>
        </mxCell>
        <mxCell id="ytlrNSvULWhmnT2JwJBG-56" value="volunteer_id" style="ellipse;shape=doubleEllipse;margin=3;whiteSpace=wrap;html=1;align=center;fontStyle=4;container=0;" vertex="1" parent="1">
          <mxGeometry x="-330" y="460" width="100" height="40" as="geometry" />
        </mxCell>
        <mxCell id="ytlrNSvULWhmnT2JwJBG-57" value="" style="endArrow=none;html=1;rounded=0;exitX=0.5;exitY=1;exitDx=0;exitDy=0;entryX=0;entryY=0.25;entryDx=0;entryDy=0;" edge="1" parent="1" source="ytlrNSvULWhmnT2JwJBG-56" target="ytlrNSvULWhmnT2JwJBG-53">
          <mxGeometry relative="1" as="geometry">
            <mxPoint x="-200" y="415" as="sourcePoint" />
            <mxPoint x="-240" y="480" as="targetPoint" />
          </mxGeometry>
        </mxCell>
        <mxCell id="ytlrNSvULWhmnT2JwJBG-58" value="volunteer_name" style="ellipse;shape=doubleEllipse;margin=3;whiteSpace=wrap;html=1;align=center;container=0;" vertex="1" parent="1">
          <mxGeometry x="-99" y="600" width="100" height="40" as="geometry" />
        </mxCell>
        <mxCell id="ytlrNSvULWhmnT2JwJBG-59" value="Volunteer" style="whiteSpace=wrap;html=1;align=center;container=0;" vertex="1" parent="1">
          <mxGeometry x="82" y="522.5" width="100" height="40" as="geometry" />
        </mxCell>
        <mxCell id="ytlrNSvULWhmnT2JwJBG-60" value="planting" style="whiteSpace=wrap;html=1;align=center;container=0;" vertex="1" parent="1">
          <mxGeometry x="-640" y="520" width="100" height="40" as="geometry" />
        </mxCell>
        <mxCell id="ytlrNSvULWhmnT2JwJBG-61" value="GrowthRate" style="ellipse;whiteSpace=wrap;html=1;align=center;container=0;" vertex="1" parent="1">
          <mxGeometry x="-790" y="540" width="100" height="40" as="geometry" />
        </mxCell>
        <mxCell id="ytlrNSvULWhmnT2JwJBG-62" value="SpeciesID" style="ellipse;whiteSpace=wrap;html=1;align=center;container=0;" vertex="1" parent="1">
          <mxGeometry x="-810" y="490" width="100" height="40" as="geometry" />
        </mxCell>
        <mxCell id="ytlrNSvULWhmnT2JwJBG-63" value="TreeID" style="ellipse;whiteSpace=wrap;html=1;align=center;fontStyle=4;container=0;" vertex="1" parent="1">
          <mxGeometry x="-750" y="400" width="100" height="40" as="geometry" />
        </mxCell>
        <mxCell id="ytlrNSvULWhmnT2JwJBG-64" value="" style="endArrow=none;html=1;rounded=0;exitX=1;exitY=0.5;exitDx=0;exitDy=0;entryX=0;entryY=0.25;entryDx=0;entryDy=0;" edge="1" parent="1" source="ytlrNSvULWhmnT2JwJBG-62" target="ytlrNSvULWhmnT2JwJBG-60">
          <mxGeometry relative="1" as="geometry">
            <mxPoint x="-710" y="523" as="sourcePoint" />
            <mxPoint x="-654" y="480" as="targetPoint" />
          </mxGeometry>
        </mxCell>
        <mxCell id="ytlrNSvULWhmnT2JwJBG-65" value="" style="endArrow=none;html=1;rounded=0;exitX=1;exitY=0.5;exitDx=0;exitDy=0;entryX=0;entryY=0.75;entryDx=0;entryDy=0;" edge="1" parent="1" source="ytlrNSvULWhmnT2JwJBG-61" target="ytlrNSvULWhmnT2JwJBG-60">
          <mxGeometry relative="1" as="geometry">
            <mxPoint x="-696" y="593" as="sourcePoint" />
            <mxPoint x="-640" y="550" as="targetPoint" />
          </mxGeometry>
        </mxCell>
        <mxCell id="ytlrNSvULWhmnT2JwJBG-66" value="" style="endArrow=none;html=1;rounded=0;exitX=0.627;exitY=0.942;exitDx=0;exitDy=0;entryX=0.367;entryY=-0.025;entryDx=0;entryDy=0;entryPerimeter=0;exitPerimeter=0;" edge="1" parent="1" source="ytlrNSvULWhmnT2JwJBG-63" target="ytlrNSvULWhmnT2JwJBG-60">
          <mxGeometry relative="1" as="geometry">
            <mxPoint x="-690" y="450" as="sourcePoint" />
            <mxPoint x="-630" y="470" as="targetPoint" />
          </mxGeometry>
        </mxCell>
        <mxCell id="ytlrNSvULWhmnT2JwJBG-67" value="" style="endArrow=none;html=1;rounded=0;exitX=1;exitY=0.5;exitDx=0;exitDy=0;" edge="1" parent="1" source="ytlrNSvULWhmnT2JwJBG-68">
          <mxGeometry relative="1" as="geometry">
            <mxPoint x="-720" y="470" as="sourcePoint" />
            <mxPoint x="-630" y="520" as="targetPoint" />
          </mxGeometry>
        </mxCell>
        <mxCell id="ytlrNSvULWhmnT2JwJBG-68" value="Location" style="ellipse;whiteSpace=wrap;html=1;align=center;container=0;" vertex="1" parent="1">
          <mxGeometry x="-840" y="440" width="100" height="40" as="geometry" />
        </mxCell>
        <mxCell id="ytlrNSvULWhmnT2JwJBG-69" value="Growth rate" style="whiteSpace=wrap;html=1;align=center;container=0;" vertex="1" parent="1">
          <mxGeometry x="-700" y="272.5" width="100" height="40" as="geometry" />
        </mxCell>
        <mxCell id="ytlrNSvULWhmnT2JwJBG-70" value="growth_rate" style="ellipse;whiteSpace=wrap;html=1;align=center;fontStyle=4;container=0;" vertex="1" parent="1">
          <mxGeometry x="-740" y="191.5" width="100" height="40" as="geometry" />
        </mxCell>
        <mxCell id="ytlrNSvULWhmnT2JwJBG-71" value="Location" style="ellipse;whiteSpace=wrap;html=1;align=center;container=0;" vertex="1" parent="1">
          <mxGeometry x="-810" y="231.5" width="100" height="40" as="geometry" />
        </mxCell>
        <mxCell id="ytlrNSvULWhmnT2JwJBG-72" value="SpeciesID" style="ellipse;whiteSpace=wrap;html=1;align=center;container=0;" vertex="1" parent="1">
          <mxGeometry x="-830" y="281.5" width="100" height="40" as="geometry" />
        </mxCell>
        <mxCell id="ytlrNSvULWhmnT2JwJBG-73" value="TreeID" style="ellipse;whiteSpace=wrap;html=1;align=center;fontStyle=0;container=0;" vertex="1" parent="1">
          <mxGeometry x="-840" y="332.5" width="100" height="40" as="geometry" />
        </mxCell>
        <mxCell id="ytlrNSvULWhmnT2JwJBG-74" value="" style="endArrow=none;html=1;rounded=0;exitX=1;exitY=0.5;exitDx=0;exitDy=0;entryX=1;entryY=0.5;entryDx=0;entryDy=0;" edge="1" parent="1" source="ytlrNSvULWhmnT2JwJBG-73">
          <mxGeometry relative="1" as="geometry">
            <mxPoint x="-490" y="292.5" as="sourcePoint" />
            <mxPoint x="-640" y="312.5" as="targetPoint" />
          </mxGeometry>
        </mxCell>
        <mxCell id="ytlrNSvULWhmnT2JwJBG-75" value="" style="endArrow=none;html=1;rounded=0;entryX=0;entryY=0.75;entryDx=0;entryDy=0;" edge="1" parent="1" source="ytlrNSvULWhmnT2JwJBG-72" target="ytlrNSvULWhmnT2JwJBG-69">
          <mxGeometry relative="1" as="geometry">
            <mxPoint x="-450" y="282.5" as="sourcePoint" />
            <mxPoint x="-600" y="302.5" as="targetPoint" />
          </mxGeometry>
        </mxCell>
        <mxCell id="ytlrNSvULWhmnT2JwJBG-76" value="" style="endArrow=none;html=1;rounded=0;entryX=0;entryY=0.25;entryDx=0;entryDy=0;exitX=1;exitY=1;exitDx=0;exitDy=0;" edge="1" parent="1" source="ytlrNSvULWhmnT2JwJBG-71" target="ytlrNSvULWhmnT2JwJBG-69">
          <mxGeometry relative="1" as="geometry">
            <mxPoint x="-510" y="272.5" as="sourcePoint" />
            <mxPoint x="-600" y="282.5" as="targetPoint" />
          </mxGeometry>
        </mxCell>
        <mxCell id="ytlrNSvULWhmnT2JwJBG-77" value="" style="endArrow=none;html=1;rounded=0;entryX=0.75;entryY=0;entryDx=0;entryDy=0;" edge="1" parent="1" target="ytlrNSvULWhmnT2JwJBG-69">
          <mxGeometry relative="1" as="geometry">
            <mxPoint x="-680" y="231.5" as="sourcePoint" />
            <mxPoint x="-670" y="272.5" as="targetPoint" />
          </mxGeometry>
        </mxCell>
        <mxCell id="ytlrNSvULWhmnT2JwJBG-78" value="" style="group" connectable="0" vertex="1" parent="1">
          <mxGeometry x="450" y="140" width="390" height="239.5" as="geometry" />
        </mxCell>
        <mxCell id="ytlrNSvULWhmnT2JwJBG-79" value="" style="endArrow=none;html=1;rounded=0;entryX=1;entryY=0.25;entryDx=0;entryDy=0;" edge="1" parent="ytlrNSvULWhmnT2JwJBG-78" target="ytlrNSvULWhmnT2JwJBG-80">
          <mxGeometry relative="1" as="geometry">
            <mxPoint x="260" y="88.5" as="sourcePoint" />
            <mxPoint x="124.36000000000001" y="174.36" as="targetPoint" />
          </mxGeometry>
        </mxCell>
        <mxCell id="ytlrNSvULWhmnT2JwJBG-80" value="EcosystemImpact" style="rounded=1;arcSize=10;whiteSpace=wrap;html=1;align=center;" vertex="1" parent="ytlrNSvULWhmnT2JwJBG-78">
          <mxGeometry y="130" width="100" height="40" as="geometry" />
        </mxCell>
        <mxCell id="ytlrNSvULWhmnT2JwJBG-81" value="" style="endArrow=none;html=1;rounded=0;entryX=1;entryY=0.75;entryDx=0;entryDy=0;exitX=0;exitY=0.5;exitDx=0;exitDy=0;" edge="1" parent="ytlrNSvULWhmnT2JwJBG-78" source="ytlrNSvULWhmnT2JwJBG-87" target="ytlrNSvULWhmnT2JwJBG-80">
          <mxGeometry relative="1" as="geometry">
            <mxPoint x="200" y="168.5" as="sourcePoint" />
            <mxPoint x="134" y="270" as="targetPoint" />
          </mxGeometry>
        </mxCell>
        <mxCell id="ytlrNSvULWhmnT2JwJBG-82" value="" style="endArrow=none;html=1;rounded=0;entryX=1;entryY=0.5;entryDx=0;entryDy=0;exitX=0;exitY=0.5;exitDx=0;exitDy=0;" edge="1" parent="ytlrNSvULWhmnT2JwJBG-78" source="ytlrNSvULWhmnT2JwJBG-89" target="ytlrNSvULWhmnT2JwJBG-80">
          <mxGeometry relative="1" as="geometry">
            <mxPoint x="240" y="143.5" as="sourcePoint" />
            <mxPoint x="290" y="259.5" as="targetPoint" />
          </mxGeometry>
        </mxCell>
        <mxCell id="ytlrNSvULWhmnT2JwJBG-83" value="" style="endArrow=none;html=1;rounded=0;" edge="1" parent="ytlrNSvULWhmnT2JwJBG-78">
          <mxGeometry relative="1" as="geometry">
            <mxPoint x="240" y="38.5" as="sourcePoint" />
            <mxPoint x="90" y="128.5" as="targetPoint" />
          </mxGeometry>
        </mxCell>
        <mxCell id="ytlrNSvULWhmnT2JwJBG-84" value="" style="endArrow=none;html=1;rounded=0;entryX=0.5;entryY=0;entryDx=0;entryDy=0;" edge="1" parent="ytlrNSvULWhmnT2JwJBG-78" target="ytlrNSvULWhmnT2JwJBG-80">
          <mxGeometry relative="1" as="geometry">
            <mxPoint x="130" y="38.5" as="sourcePoint" />
            <mxPoint x="120" y="134.5" as="targetPoint" />
          </mxGeometry>
        </mxCell>
        <mxCell id="ytlrNSvULWhmnT2JwJBG-85" value="" style="endArrow=none;html=1;rounded=0;exitX=0.5;exitY=1;exitDx=0;exitDy=0;entryX=0.25;entryY=0;entryDx=0;entryDy=0;" edge="1" parent="ytlrNSvULWhmnT2JwJBG-78" source="ytlrNSvULWhmnT2JwJBG-86" target="ytlrNSvULWhmnT2JwJBG-80">
          <mxGeometry relative="1" as="geometry">
            <mxPoint x="226" y="68.5" as="sourcePoint" />
            <mxPoint x="110" y="184.5" as="targetPoint" />
          </mxGeometry>
        </mxCell>
        <mxCell id="ytlrNSvULWhmnT2JwJBG-86" value="impact_id" style="ellipse;whiteSpace=wrap;html=1;align=center;fontStyle=4;container=0;" vertex="1" parent="ytlrNSvULWhmnT2JwJBG-78">
          <mxGeometry y="18.5" width="100" height="40" as="geometry" />
        </mxCell>
        <mxCell id="ytlrNSvULWhmnT2JwJBG-87" value="carbon_sequestration" style="ellipse;whiteSpace=wrap;html=1;align=center;container=0;" vertex="1" parent="ytlrNSvULWhmnT2JwJBG-78">
          <mxGeometry x="200" y="158.5" width="160" height="40" as="geometry" />
        </mxCell>
        <mxCell id="ytlrNSvULWhmnT2JwJBG-88" value="soil_eroision_level" style="ellipse;whiteSpace=wrap;html=1;align=center;container=0;" vertex="1" parent="ytlrNSvULWhmnT2JwJBG-78">
          <mxGeometry x="100" width="130" height="40" as="geometry" />
        </mxCell>
        <mxCell id="ytlrNSvULWhmnT2JwJBG-89" value="soil_ph_change" style="ellipse;whiteSpace=wrap;html=1;align=center;container=0;" vertex="1" parent="ytlrNSvULWhmnT2JwJBG-78">
          <mxGeometry x="260" y="108.5" width="100" height="40" as="geometry" />
        </mxCell>
        <mxCell id="ytlrNSvULWhmnT2JwJBG-90" value="biodiversity_change" style="ellipse;whiteSpace=wrap;html=1;align=center;container=0;" vertex="1" parent="ytlrNSvULWhmnT2JwJBG-78">
          <mxGeometry x="260" y="58.5" width="130" height="40" as="geometry" />
        </mxCell>
        <mxCell id="ytlrNSvULWhmnT2JwJBG-91" value="project_id" style="ellipse;whiteSpace=wrap;html=1;align=center;container=0;" vertex="1" parent="ytlrNSvULWhmnT2JwJBG-78">
          <mxGeometry x="240" y="8.5" width="100" height="40" as="geometry" />
        </mxCell>
        <mxCell id="ytlrNSvULWhmnT2JwJBG-92" value="date_measured" style="ellipse;whiteSpace=wrap;html=1;align=center;container=0;" vertex="1" parent="ytlrNSvULWhmnT2JwJBG-78">
          <mxGeometry x="140" y="199.5" width="100" height="40" as="geometry" />
        </mxCell>
        <mxCell id="ytlrNSvULWhmnT2JwJBG-93" value="" style="endArrow=none;html=1;rounded=0;entryX=0.5;entryY=1;entryDx=0;entryDy=0;" edge="1" parent="ytlrNSvULWhmnT2JwJBG-78" target="ytlrNSvULWhmnT2JwJBG-80">
          <mxGeometry relative="1" as="geometry">
            <mxPoint x="150" y="208.5" as="sourcePoint" />
            <mxPoint y="274.5" as="targetPoint" />
          </mxGeometry>
        </mxCell>
        <mxCell id="ytlrNSvULWhmnT2JwJBG-94" value="" style="fontSize=12;html=1;endArrow=ERoneToMany;startArrow=ERmandOne;rounded=0;exitX=1;exitY=0.5;exitDx=0;exitDy=0;" edge="1" parent="1" source="ytlrNSvULWhmnT2JwJBG-96">
          <mxGeometry width="100" height="100" relative="1" as="geometry">
            <mxPoint x="450" y="380" as="sourcePoint" />
            <mxPoint x="450" y="300" as="targetPoint" />
          </mxGeometry>
        </mxCell>
        <mxCell id="ytlrNSvULWhmnT2JwJBG-95" value="" style="fontSize=12;html=1;endArrow=ERoneToMany;startArrow=ERmandOne;rounded=0;exitX=1;exitY=0.75;exitDx=0;exitDy=0;" edge="1" parent="1" source="ytlrNSvULWhmnT2JwJBG-31" target="ytlrNSvULWhmnT2JwJBG-96">
          <mxGeometry width="100" height="100" relative="1" as="geometry">
            <mxPoint x="200" y="300" as="sourcePoint" />
            <mxPoint x="450" y="300" as="targetPoint" />
          </mxGeometry>
        </mxCell>
        <mxCell id="ytlrNSvULWhmnT2JwJBG-96" value="can have many" style="shape=rhombus;perimeter=rhombusPerimeter;whiteSpace=wrap;html=1;align=center;" vertex="1" parent="1">
          <mxGeometry x="261" y="271.5" width="120" height="60" as="geometry" />
        </mxCell>
      </root>
    </mxGraphModel>
  </diagram>
</mxfile>
